<svg id="b582dbfc-ed60-4217-aa06-1e10ec960023" xmlns="http://www.w3.org/2000/svg" viewBox="0 0 842 678.4" role="img" aria-hidden="true"><style>.st0{fill:#3f3d56}.st1{fill:#cc8f9b}.st3{fill:#2f2e41}.st4{fill:#d0cde1}.st5{fill:#f2f2f2}.st6{fill:#694f7f}</style><ellipse class="st0" cx="426" cy="645.9" rx="416" ry="32.5"/><path class="st1" d="M779.4 585.5l3.9 28.6-27.3 2.6 3.9-35.1 19.5 3.9z"/><path d="M650.7 193s2.6 35.1 2.6 36.4-18.2 91-18.2 91-26 49.4 0 48.1 18.2-46.8 18.2-46.8l27.3-75.4-11.7-53.3h-18.2z" fill="#a0616a"/><path class="st1" d="M693.6 585.5l-3.9 28.6 27.3 2.6-3.9-35.1-19.5 3.9z"/><path class="st3" d="M663.7 317.8l-6.5 9.1s-3.9 39 0 52 11.7 72.8 11.7 76.7 1.3 6.5 0 7.8-5.2 1.3-2.6 3.9 2.6 10.4 2.6 10.4v6.5l16.9 96.2s-10.4 11.7-2.6 11.7 36.4 0 35.1-13l-2.6-1.3s-3.9-85.8-2.6-89.7 0-11.7 0-11.7-2.6-3.9 0-5.2 2.6-11.7 2.6-11.7l11.7-79.3s10.4 53.3 16.9 58.5 5.2 18.2 5.2 18.2l5.2 114.4s-5.2 13 0 15.6 27.3 11.7 28.6-1.3 7.8-126.1 7.8-131.3-1.3-7.8 0-11.7-1.3-3.9 0-3.9-2.6-3.9-2.6-6.5v-63.7s1.3-13 2.6-15.6-1.3-5.2 0-9.1-2.6-16.9-2.6-16.9L730 311.3l-66.3 6.5zm45.5 291.1s6.5-6.5-2.6-6.5c-5.8.1-11.6 1.4-16.9 3.9l-6.5 23.4s-26.6 21.4 3.2 18.8 25.3-.6 25.3-.6 9.1-2.6 10.4-5.2-2.6-40.3-2.6-40.3-3.8 10.4-10.3 6.5zm55.9 0s-6.5-6.5 2.6-6.5c5.8.1 11.6 1.4 16.9 3.9l6.5 23.4s26.6 21.4-3.2 18.8-29.2-.6-29.2-.6-9.1-2.6-10.4-5.2 6.5-40.3 6.5-40.3 3.8 10.4 10.3 6.5z"/><circle class="st1" cx="680.6" cy="56.5" r="33.8"/><path class="st1" d="M668.9 81.2s5.2 26 5.2 29.9 22.1 15.6 22.1 15.6l24.7-31.2s-15.6-22.1-15.6-27.3l-36.4 13z"/><path class="st4" d="M688.4 115s-11.3-3-14.8-8c0 0-35.9 35.3-35.9 41.8l28.6 50.7s0 18.2 2.6 19.5 0 0 0 5.2-7.8 39-5.2 44.2 5.2 1.3 2.6 9.1-9.1 49.4-9.1 49.4 23.4-7.8 57.2 5.2 74.1-5.2 74.1-5.2-10.4-23.4-7.8-31.2-6.5-22.1-6.5-22.1L767.7 154s9.1-53.3 2.6-55.9l-13-5.2-41.6-5.1s-10.4 25.9-27.3 27.2z"/><path class="st4" d="M650.7 139.7l-13 9.1s-6.5 19.5 0 28.6 9.1 22.1 9.1 22.1l26-2.6-22.1-57.2z"/><path class="st3" d="M654.8 20.8l-5.9-2.3S661.2 5 678.2 6.2L673.4.9s11.7-4.7 22.4 7.6c5.6 6.5 12.1 14.1 16.1 22.7h6.3l-2.6 5.8 9.2 5.8-9.4-1c.9 5 .6 10.1-.9 14.9l.3 4.6s-10.9-16.9-10.9-19.2V48s-5.9-5.3-5.9-8.8l-3.2 4.1-1.6-6.5-19.7 6.5 3.2-5.3-12.3 1.8 4.8-6.5s-13.9 7.6-14.4 14.1-7.5 14.7-7.5 14.7l-3.2-5.9c0-.2-4.8-26.6 10.7-35.4z"/><path class="st5" d="M146.2 282.8h516.5v362.8H146.2V282.8z"/><path class="st0" d="M189.6 421.3h129.7v226.4H189.6V421.3z"/><path class="st5" d="M213.6 434.8h34.9v32.6h-34.9v-32.6zm46.8 0h34.9v32.6h-34.9v-32.6zm-46.8 44.4h34.9v33.7h-34.9v-33.7zm46.8 0h34.9v33.7h-34.9v-33.7z"/><circle class="st6" cx="302.8" cy="549.7" r="8.2"/><path class="st0" d="M362.8 399.8h256.4v215.1H362.8V399.8zm353.8-48.7H92.2l41.6-87 9.3-19.5 12.2-25.5 9.4-19.5 10.8-22.5h491.9l6.4 22.5 5.5 19.5 7.2 25.5 5.5 19.5 24.6 87z"/><path class="st6" d="M371.8 489h9v55.5h-9V489z"/><path class="st5" d="M371.8 497.2h9v6.7h-9v-6.7zm0 32.2h9v6.7h-9v-6.7z"/><path class="st6" d="M385.3 489H407v55.5h-21.7V489z"/><path class="st5" d="M385.3 497.2H407v6.7h-21.7v-6.7zm0 32.2H407v6.7h-21.7v-6.7z"/><path class="st6" d="M412.3 489h9v55.5h-9V489z"/><path class="st5" d="M412.3 497.2h9v6.7h-9v-6.7zm0 32.2h9v6.7h-9v-6.7z"/><path class="st6" d="M425.8 489h9v55.5h-9V489z"/><path class="st5" d="M425.8 497.2h9v6.7h-9v-6.7zm0 32.2h9v6.7h-9v-6.7z"/><path class="st6" d="M435 492.4l8.4-3.2 19.6 51.9-8.4 3.2-19.6-51.9z"/><path class="st5" d="M437.9 500l8.4-3.2 2.4 6.3-8.4 3.2-2.4-6.3zM449.3 530.2l8.4-3.2 2.4 6.3-8.4 3.2-2.4-6.3z"/><path class="st6" d="M589.2 489h21.7v55.5h-21.7V489z"/><path class="st5" d="M589.2 497.2h21.7v6.7h-21.7v-6.7zm0 32.2h21.7v6.7h-21.7v-6.7z"/><path class="st6" d="M574.9 489h9v55.5h-9V489z"/><path class="st5" d="M574.9 497.2h9v6.7h-9v-6.7zm0 32.2h9v6.7h-9v-6.7z"/><path class="st6" d="M561.4 489h9v55.5h-9V489z"/><path class="st5" d="M561.4 497.2h9v6.7h-9v-6.7zm0 32.2h9v6.7h-9v-6.7z"/><path class="st6" d="M533.2 541l19.6-51.9 8.4 3.2-19.6 51.9-8.4-3.2z"/><path class="st5" d="M547.4 503.2l2.4-6.3 8.4 3.2-2.4 6.3-8.4-3.2zM536.1 533.4l2.4-6.3 8.4 3.2-2.4 6.3-8.4-3.2zM362.8 544.4h256.4v5.2H362.8v-5.2z"/><path class="st6" d="M474.5 489h47.2v55.5h-47.2V489z"/><path class="st5" d="M486.1 501h24v10.5h-24V501zm2.6-101.2h4.5v48h-4.5v-48z"/><circle class="st5" cx="491" cy="447.7" r="7.5"/><path class="st6" d="M679.3 219.1h-524l9.4-19.5h509.1l5.5 19.5zm12.7 45H133.8l9.3-19.5h543.4l5.5 19.5z"/><path class="st1" d="M746.9 151.4s-7.5 19.4-6 38.5c.3 3.4 1.4 6.7 3.4 9.6l-92.2 43.8s-41.7 4.3-31.3 22.5 48.1-9.1 48.1-9.1 98.8-14.3 106.6-28.6 13-74.1 13-74.1l-41.6-2.6z"/><path class="st4" d="M750.8 98.1h19.5s14.3 2.6 18.2 28.6 7.8 32.5 3.9 32.5-50.7-1.3-50.7-2.6 9.1-58.5 9.1-58.5z"/><circle class="st6" cx="100" cy="386.4" r="100"/><circle cx="100" cy="386.4" r="86" opacity=".1"/><path class="st5" d="M95.9 437.1v-12.5c-6.3-.1-12.9-2.4-16.7-5.5l2.6-8.3c4.5 3.4 10 5.3 15.7 5.3 7.7 0 13-5.1 13-12.1 0-6.8-4.3-11-12.3-14.7-11.1-5-18-10.7-18-21.4 0-10.3 6.4-18.1 16.5-20v-12.5h6.8v12c5 .1 10 1.6 14.2 4.3l-2.7 8.2c-4-2.8-8.8-4.2-13.7-4.2-8.4 0-11.6 5.7-11.6 10.7 0 6.4 4 9.7 13.5 14.1 11.2 5.2 16.9 11.6 16.9 22.7 0 9.8-6 19-17.2 21.1v12.9h-7v-.1z"/></svg>
