<svg xmlns="http://www.w3.org/2000/svg" viewBox="0 0 500 500"><defs><style>.cls-1{fill:#523766;}</style></defs><path class="cls-1" d="M387.28,106.62c-4.07.51-9.15-4.58-12.2-11.19-7.12-14.74-17.8-30-47.29-32C280,59.84,213.9,99.5,176.28,226.61c-12.21,40.17-17.8,77.79-17.8,109.32,0,61,21.86,100.67,64.06,100.16,70.68-1,115.42-63.55,132.71-168.29,4.57-30,7.12-54.92,7.12-75.25,0-45.76-12.72-67.63-41.7-70.17-41.18-3.56-83.89,64.06-97.62,129.65a307.24,307.24,0,0,0-6.1,60,246.42,246.42,0,0,0,7.63,62c2,9.15-1,14.24-4.58,15.25-3.05.51-6.61-2-9.15-7.62-2.54-7.63-8.64-33.56-8.64-68.64a303.09,303.09,0,0,1,12.2-85.42c20.34-65.08,58.47-120,105.25-120,5.08,0,9.66,1,14.74,2C371.52,118.82,398,157.46,398,218c0,24.4-4.07,51.86-13.73,82.37-30,97.11-94.57,152.53-160.67,152.53a105.75,105.75,0,0,1-21.86-2C147.29,441.17,102,385.75,102,308c0-26.94,5.6-56.43,17.8-88,38.64-99.15,124.57-172.87,198.8-172.87a99.86,99.86,0,0,1,30,4.58c32,9.66,41.69,35.08,43.22,45.76C393.38,103.57,390.33,106.62,387.28,106.62Z"/></svg>
