<svg id="Layer_1" data-name="Layer 1" xmlns="http://www.w3.org/2000/svg" viewBox="0 0 500 136"><title>Ourbackyard.co.za</title><defs><style>.cls-1{fill:#523766}.cls-2{fill:#333}</style></defs><path class="cls-1" d="M85.17 23.23c-.85.1-1.93-1-2.57-2.36-1.5-3.11-3.75-6.33-10-6.75-10.07-.75-24 7.61-31.94 34.41a81 81 0 0 0-3.75 23c0 12.86 4.61 21.23 13.5 21.12 14.9-.22 24.34-13.4 28-35.48a109.94 109.94 0 0 0 1.5-15.87c0-9.64-2.68-14.25-8.79-14.79-8.68-.75-17.69 13.51-20.58 27.33a64.41 64.41 0 0 0-1.29 12.65 51.73 51.73 0 0 0 1.61 13.08c.43 1.93-.21 3-1 3.22s-1.4-.43-1.93-1.61a51.74 51.74 0 0 1-1.83-14.47 63.94 63.94 0 0 1 2.58-18C53 35 61.05 23.44 70.92 23.44a15.73 15.73 0 0 1 3.1.43C81.85 25.8 87.42 34 87.42 46.7a57.42 57.42 0 0 1-2.89 17.37c-6.32 20.47-19.94 32.16-33.87 32.16a22.49 22.49 0 0 1-4.61-.43c-11.47-2-21-13.72-21-30.12a51.54 51.54 0 0 1 3.75-18.55c8.15-20.9 26.26-36.44 41.91-36.44a21.17 21.17 0 0 1 6.33 1 12.48 12.48 0 0 1 9.11 9.65c.31 1.24-.33 1.89-.98 1.89zm43.63 67.64c-1.93 1.71-4.4 4.28-8.9 3.53s-6.54-5.57-6.54-12.43c0-1.07 0-2 .11-3.22a84.93 84.93 0 0 1-4.61 7.4c-3.75 5-7 8.9-12.54 8.47-4.4-.32-7.51-4.93-7.51-12a27.7 27.7 0 0 1 .86-7c1.93-7.93 4.72-14.9 5.9-15.54a8 8 0 0 1 3.75-.64c.86.11 1.82.11 2.25 1 .32.32.32 1 .21 1.83-.53 2.57-2.14 8.79-3.1 13.39-.65 2.79-1.83 8-1.83 11.58 0 2.15.43 3.75 1.72 3.86 3.32.43 8.25-5.36 11-10.4 1.61-2.78 3.64-7.29 5.25-10.72 1-4.82 2.57-8.79 3.32-9.64.65-.65 2.36-.65 3.65-.65s3 .22 3.32.75a2.36 2.36 0 0 1 .11 1.29c-.64 3-2 9.22-2.9 14-.75 3.65-1.71 8.47-1.71 11.69 0 1.71.32 3.1 1.07 3.43 2.25 1.07 5.15-1.72 7.18-4.4a38.75 38.75 0 0 0 3.86-5.89 1.33 1.33 0 0 1 1.93-.65c.43.32.65 1.07.11 2.15a40.08 40.08 0 0 1-5.96 8.81z"/><path class="cls-1" d="M170 74.89a12.51 12.51 0 0 1-5.79 4.19 15.05 15.05 0 0 1-3.54.53 10.15 10.15 0 0 1-4.67-1.07c-2.79-1.61-4.5-5-4.18-9.11.11-1.82-.32-1.4-1.07-.54a55.4 55.4 0 0 0-5.75 9.22 109 109 0 0 0-5.25 14.36c-.43 1.08-1.5 1.4-4 1.4s-4.29-.22-4.18-1.5.75-9.44 1.82-15.76c1.08-7.07 3.33-15.11 3.76-15.76s1.93-1.07 4-1 3.33 1.07 3.11 2.25-.86 5.36-1.39 7.93-.75 5.68-.86 6.54c0 .54.21.64.43.43a3.86 3.86 0 0 0 .64-1c.64-1.18 3.43-6 5.68-9.43a34.87 34.87 0 0 1 4.83-6.11c.85-.54 5.14-2 6.75-.86 2 1.5.43 5-.43 7.29s-3.11 6.86-1.61 8.79c.86 1.18 3 1.5 5.36 1a10.93 10.93 0 0 0 5.15-3.54 1.11 1.11 0 0 1 1.71.11c.19.36-.03.89-.52 1.64z"/><path class="cls-1" d="M200.83 81.65c-1.72 1.71-5 2.57-8 2.57a10.25 10.25 0 0 1-3.22-.43c-4.18 7.72-10.5 11.69-15.86 10.83-6-1-9.33-7-9.33-17.8q0-9.31 3.54-23.47c5.68-22.4 14.79-37.41 23.26-35.48 3.75.86 5.15 3.75 5.15 7.5 0 5-2.47 11.58-5 16.94-5 10.72-12.33 21.44-17.48 27a118 118 0 0 0-1.5 15.44c0 4.5.86 6.75 3 6.86 4 .32 9-3.33 12-9a12.61 12.61 0 0 1-5.57-9.22c-1-6.75 1.93-14.57 7.07-14.36 3.32.11 5.36 3.11 5.36 8.25a34.23 34.23 0 0 1-2 10.62c-.32 1-.75 1.93-1.17 2.89a12.94 12.94 0 0 0 3.1.43c1.83 0 3.86-.43 4.83-1.5 1.82-1.72 2.68-1.72 2.89-1.07s-.22 2.03-1.07 3zm-25.09-25.3c-.32 2.14-.64 4.18-1 6.22a76 76 0 0 0 11.68-17c3.65-7.18 6.54-14.9 6.54-19.72 0-2.36-.64-4.07-2.36-4.61-5.1-1.87-10.89 9.76-14.86 35.11zm14.58 14.15c0-3.22-1-5.36-2.78-5.47-2-.1-3.22 2.68-3.22 6a13.58 13.58 0 0 0 1 5 8.44 8.44 0 0 0 3.33 3.65c.1-.22.1-.43.21-.64a27.87 27.87 0 0 0 1.46-8.54z"/><path class="cls-1" d="M239.84 90.76c-1.82 1.82-4.82 4.18-9.22 3.54-3.75-.54-6-3.65-6.64-8.47-3.86 6.11-10.83 9.65-16.72 8.47-4.4-1-9.11-5.47-9.11-12.65a21.12 21.12 0 0 1 2.35-9.44c4.51-9.32 12.76-13.07 18.55-13.07a8.65 8.65 0 0 1 4.61 1.07 11.41 11.41 0 0 1 4.07 4.18 28.15 28.15 0 0 1 1.82-3.39 4.33 4.33 0 0 1 4-1.61c1.29.11 3 .54 2.79 1.61-.65 2.89-2.58 9-3.65 14.58a67.69 67.69 0 0 0-1.39 11.15c0 2.14.32 3.64 1.18 4.07 2.14 1.07 5.57-1.93 7.72-4.5a30.12 30.12 0 0 0 3.64-5.68c.75-1.5 3.11-.86 2 1.5a37.33 37.33 0 0 1-6 8.64zm-18.43-28.3c-6.86-1.93-10.94 7.93-12.55 14.15a40 40 0 0 0-1.6 9.43c0 2.68.75 4.83 2.68 5.36 4.39 1.29 8.68-3.11 11.47-7.39a34.58 34.58 0 0 0 2.68-5 55 55 0 0 1 1.91-9.37c-.09-2.64-1.06-6.11-4.59-7.18z"/><path class="cls-1" d="M281.43 82.18A21.2 21.2 0 0 1 271 92.58a23.11 23.11 0 0 1-10.18 2.15 33.3 33.3 0 0 1-7.72-1 14.43 14.43 0 0 1-10.61-16.08c1.18-9.54 10.51-18.54 19.73-18.54 8.57 0 10.61 4.82 10.18 7.61-.32 2.36-1.93 5-5.36 4.82-3.65-.21-4.4-2.89-4-5s.54-4-1.61-4.18c-3.1-.32-7 4.93-8.68 12.12a37.2 37.2 0 0 0-1 7.28c0 4.19 1.28 7.62 5 9.12a14.11 14.11 0 0 0 5.37 1.07 18.15 18.15 0 0 0 8.46-2.25 24.48 24.48 0 0 0 9.35-9.7 1 1 0 0 1 1.61-.32c.46.32.64 1.22-.11 2.5z"/><path class="cls-1" d="M322 83a33 33 0 0 1-7.18 8.79 13.34 13.34 0 0 1-10 2.68c-3.43-.64-6.43-3.75-5.47-7.61.54-2 1.5-5.15 1.5-7.4 0-1.6-.53-2.89-2.25-2.89-4 0-7.07 4.07-8.9 7.5a57.49 57.49 0 0 0-3.32 7.83c-.32 1.07-1.18 1.71-3.86 1.82s-4.71.54-4.71-1.71a271.21 271.21 0 0 1 5.78-40.52C287.65 33 294.4 16.69 305 18.4c4.29.75 5.79 3.65 5.79 7.61 0 5.9-3.54 13.94-6.32 19.3-4.51 8.25-14.15 22.62-16.4 25.3-1 7.39-1.18 10.29-1.18 10.72-.22.75.32.42.75-.65a75.9 75.9 0 0 1 7.72-11.14c3.53-4 10.07-10.51 15.86-10.19 5.47.43 4.61 4.61 4 5.9a4.53 4.53 0 0 1-4.83 2.46c-2.25-.32-3.43-2.46-5.57-2-3 .53-7.93 6.53-8.9 7.93s.11 1 .64.64a10.21 10.21 0 0 1 4.08-.75 12.93 12.93 0 0 1 3.86.64c3.1 1.08 5.68 3.43 4.93 6.86s-2.25 8.9-.86 9.54c2 1 4.61-.75 6.65-2.67a25.9 25.9 0 0 0 4.78-6.79c.54-1.07 1.61-1.18 2-.53a2.5 2.5 0 0 1 0 2.42zm-31.24-28.79c-.65 3.21-1.08 6.11-1.4 8.57 2.58-2.46 6.86-7.93 11.36-16.4 4.61-8.68 7.08-15.76 7.08-20.26 0-2.68-1-4.39-2.79-4.93-6.32-1.61-10.93 13.19-14.25 33.02z"/><path class="cls-1" d="M360.86 83.15c-1.29 2.89-6.54 8.47-13.4 12.33-.22 1-.32 2-.54 2.89-2.25 14.36-5.36 22.08-9 27.23-2.79 3.86-7.29 7-11.47 7a7.65 7.65 0 0 1-4-1.07c-2.68-1.61-3.86-4.61-3.86-8.14a21.87 21.87 0 0 1 3.33-11c3.75-6.21 10.61-11.79 17.68-15.75 1.18-6.86 2-12.44 2.15-13.08s0-.86-.11-1-.43.22-.64.65c-.86 1.5-7.61 12.33-15.33 11.15-5.25-.86-7.08-5.79-7.08-11.58a41.89 41.89 0 0 1 1-8c1.5-7.07 3.86-13.94 4.93-14.58a4.15 4.15 0 0 1 3.11-.86c1.5 0 3.64 1.18 3.32 2.58s-2.68 10.93-3.43 14.68c-.53 2.58-1.71 7.61-1.71 11 0 1.83.32 3.11 1.18 3.43 2.46 1.08 7.28-1.18 11.79-8.79s6.32-19.29 6.32-20.26 1.5-2.14 3.75-2 4.5.21 4.18 2.25c-.21 1.71-3.11 17.69-5 30a30.32 30.32 0 0 0 10.71-10.61c1-1.82 1.93-1.93 2.36-1.29a3.56 3.56 0 0 1-.24 2.82zm-36.13 31.62a24.56 24.56 0 0 0-2.57 9.65c0 2.57.86 4.29 2.25 4.93 3.33 1.39 8.9-1.18 11.58-13.51 1.07-4.71 2.14-10.5 3.11-15.86-6.22 3.75-11.69 8.89-14.37 14.79z"/><path class="cls-1" d="M399.23 90.76c-1.82 1.82-4.82 4.18-9.22 3.54-3.75-.54-6-3.65-6.64-8.47-3.86 6.11-10.83 9.65-16.73 8.47-4.39-1-9.11-5.47-9.11-12.65a21.14 21.14 0 0 1 2.36-9.44c4.5-9.32 12.76-13.07 18.55-13.07a8.59 8.59 0 0 1 4.6 1.07 11.37 11.37 0 0 1 4.08 4.18 28.15 28.15 0 0 1 1.82-3.39 4.33 4.33 0 0 1 4-1.61c1.28.11 3 .54 2.78 1.61-.64 2.89-2.57 9-3.64 14.58a67.69 67.69 0 0 0-1.39 11.15c0 2.14.32 3.64 1.17 4.07 2.15 1.07 5.58-1.93 7.72-4.5a29.75 29.75 0 0 0 3.65-5.68c.75-1.5 3.11-.86 2 1.5a37.28 37.28 0 0 1-6 8.64zm-18.44-28.3c-6.86-1.93-10.93 7.93-12.54 14.15a39.49 39.49 0 0 0-1.61 9.39c0 2.68.75 4.83 2.68 5.36 4.4 1.29 8.69-3.11 11.47-7.39a33.63 33.63 0 0 0 2.68-5 55 55 0 0 1 1.93-9.33c-.1-2.64-1.07-6.11-4.61-7.18z"/><path class="cls-1" d="M440 74.89a12.41 12.41 0 0 1-5.79 4.19 14.9 14.9 0 0 1-3.53.53 10.09 10.09 0 0 1-4.68-1.07c-2.79-1.61-4.51-5-4.18-9.11.1-1.82-.33-1.4-1.08-.54a55.65 55.65 0 0 0-5.74 9.22 108 108 0 0 0-5.26 14.36c-.43 1.08-1.5 1.4-4 1.4s-4.29-.22-4.18-1.5.75-9.44 1.82-15.76c1.07-7.07 3.32-15.11 3.75-15.76s1.93-1.07 4-1 3.32 1.07 3.11 2.25-.86 5.36-1.4 7.93-.75 5.68-.86 6.54c0 .54.22.64.43.43a3.86 3.86 0 0 0 .65-1c.64-1.18 3.43-6 5.68-9.43a35.56 35.56 0 0 1 4.82-6.11c.86-.54 5.15-2 6.75-.86 2 1.5.43 5-.42 7.29s-3.11 6.86-1.61 8.79c.86 1.18 3 1.5 5.36 1a10.9 10.9 0 0 0 5.14-3.54 1.12 1.12 0 0 1 1.72.11c.21.36 0 .89-.5 1.64z"/><path class="cls-1" d="M476.83 89.9c-2.14 2-5.89 5-10.29 4.18-3-.64-5.36-3.54-6-7.93-4.18 5.68-10.4 9-15.54 8.68S434 90 434 81.65a21.39 21.39 0 0 1 .64-4.93c3.22-12.87 15.11-18.87 21.87-17.58a11.37 11.37 0 0 1 6.75 4.29c1.39-7.29 4-20.69 5.79-30.34.21-1.07.32-1.5 1.39-1.93a14 14 0 0 1 3.22-.64 7.11 7.11 0 0 1 3 .21c1.5.43 1.07 1.5.86 2.79-.75 4.39-3.11 15.22-5.68 28.73-2.15 11.68-3.86 20.68-3.86 25.4 0 2 .32 3.22 1.07 3.54 2.14.86 4.72-1.61 6.54-3.54a30.86 30.86 0 0 0 4.29-6.43c.53-1.29 2.68-.75 1.82 1.18a26 26 0 0 1-4.87 7.5zm-20.25-27.76c-5.79-1.07-9.87 5.68-12.23 14.79a30.71 30.71 0 0 0-1.07 7.5c0 4.51 1.5 7 3.54 7.4 3.11.54 7.08-1.82 10.72-6.11a19 19 0 0 0 3.32-5.89c.54-3 1-6.65 1.5-10.4-.53-2.9-1.71-6.54-5.78-7.29z"/><path class="cls-2" d="M352.93 53.78c-1.35 0-2.36-1.35-2.21-3a3.11 3.11 0 0 1 2.71-3.07c1.36 0 2.36 1.36 2.22 3.07a3.09 3.09 0 0 1-2.72 3zM384 45.21a14.15 14.15 0 0 1-6.94 6.93 15.4 15.4 0 0 1-6.78 1.43 22 22 0 0 1-5.15-.64 9.61 9.61 0 0 1-7.07-10.72c.78-6.36 7-12.36 13.14-12.36 5.72 0 7.08 3.21 6.79 5.07a3.38 3.38 0 0 1-3.57 3.22 2.61 2.61 0 0 1-2.64-3.36c.35-1.36.35-2.65-1.08-2.79-2.07-.21-4.64 3.29-5.78 8.07a24.48 24.48 0 0 0-.65 4.86c0 2.79.86 5.08 3.36 6.08a9.38 9.38 0 0 0 3.57.71 12 12 0 0 0 5.65-1.5 16.33 16.33 0 0 0 6.15-6.43.68.68 0 0 1 1.07-.21c.3.21.45.78-.07 1.64z"/><path class="cls-2" d="M403.24 51.57a16.45 16.45 0 0 1-7 1.5 12.33 12.33 0 0 1-3.43-.43 9.85 9.85 0 0 1-3.43.72c-7.22.28-11.15-4.65-11.15-9.79.07-7.79 7-13.65 13.79-13.8 7.72-.14 10.43 5 10.36 9.58-.07 4.07-2.64 8.57-6.36 11.36a9.1 9.1 0 0 0 6.72-1.07 13.29 13.29 0 0 0 4.86-5.29 1.28 1.28 0 0 1 1.43-.64c.43.21.64.71.21 1.5a15 15 0 0 1-6 6.36zM397 39c0-4.93-2.29-7.14-5.07-7.29-3.22-.07-6.58 2.72-7.36 9.79a23.68 23.68 0 0 0-.22 3.08c0 4.93 1.72 6.93 4.58 6.86s6.78-2.58 7.86-9.58A21.18 21.18 0 0 0 397 39zm14.38 14.78c-1.35 0-2.35-1.35-2.21-3a3.11 3.11 0 0 1 2.71-3.07c1.36 0 2.36 1.36 2.22 3.07a3.08 3.08 0 0 1-2.72 3zm29.23-4.14a11.5 11.5 0 0 1-8.61 3.64c-3.29.08-7.44-2.35-9.79-2.28a4.43 4.43 0 0 0-3.15 1.07.77.77 0 0 1-.93-.29c-.28-.28-.43-.85 0-1.64a34 34 0 0 1 7-7.65 82.52 82.52 0 0 1 8.14-6c.22-.14.36-.36.29-.43s-.22-.14-.5-.14a5.6 5.6 0 0 1-2.93 0c-1.43-.36-4.15-1.72-5.51-2.14a3.14 3.14 0 0 0-3 .07 1.64 1.64 0 0 0-.14 2.36c.72.5 1.64 2.5.07 3.43a2.23 2.23 0 0 1-3.36-1.5c-.42-1.93.86-4.94 2.86-6.36a10 10 0 0 1 7.29-1.86c2.57.35 4 2.14 6.65 2.21a5.09 5.09 0 0 0 3.86-1.07 1.25 1.25 0 0 1 1.21.07c.36.22.5.57.14 1.07-.78 1.08-5.64 6.72-8.21 8.44s-7.15 5.07-7.65 5.57-.43.5-.29.5.22 0 .36-.07a6.28 6.28 0 0 1 2.72.14c1.35.22 5.86 1.93 8.07 1.93a7 7 0 0 0 4.8-1.43 7.62 7.62 0 0 0 1.86-2.43A1.35 1.35 0 0 1 443 44c.43.08.79.43.5 1.29a12.66 12.66 0 0 1-2.89 4.35z"/><path class="cls-2" d="M465.05 50.93a7.07 7.07 0 0 1-6.15 2.35c-2.5-.35-4-2.43-4.43-5.64-2.57 4.07-7.21 6.43-11.14 5.64-2.93-.64-6.08-3.64-6.08-8.43a14.08 14.08 0 0 1 1.57-6.29c3-6.21 8.51-8.71 12.37-8.71a5.77 5.77 0 0 1 3.07.71 7.57 7.57 0 0 1 2.74 2.79 18.73 18.73 0 0 1 1.22-2.29 2.89 2.89 0 0 1 2.61-1.06c.86.07 2 .36 1.86 1.07-.43 1.93-1.71 6-2.43 9.72a44.79 44.79 0 0 0-.93 7.43c0 1.43.22 2.43.79 2.72 1.43.71 3.71-1.29 5.14-3a19.78 19.78 0 0 0 2.43-3.78c.5-1 2.07-.57 1.36 1a25 25 0 0 1-4 5.77zm-12.29-18.87c-4.58-1.29-7.29 5.29-8.36 9.43a26.48 26.48 0 0 0-1.07 6.29c0 1.79.5 3.22 1.78 3.57 2.93.86 5.79-2.07 7.65-4.93a21.8 21.8 0 0 0 1.78-3.35 37.54 37.54 0 0 1 1.29-6.22c-.07-1.79-.71-4.07-3.07-4.79z"/></svg>
