<svg xmlns="http://www.w3.org/2000/svg" viewBox="0 0 500 500" role="img"><path d="M387.28 106.62c-4.07.51-9.15-4.58-12.2-11.19-7.12-14.74-17.8-30-47.29-32.03C280 59.84 213.9 99.5 176.27 226.61c-12.2 40.17-17.8 77.79-17.8 109.31 0 61.01 21.86 100.67 64.06 100.16 70.67-1.02 115.42-63.55 132.7-168.29 4.58-30 7.12-54.91 7.12-75.25 0-45.76-12.71-67.62-41.69-70.17-41.18-3.56-83.89 64.06-97.62 129.65-4.58 22.88-6.1 43.22-6.1 60 0 31.02 5.08 51.35 7.63 62.03 2.03 9.15-1.02 14.24-4.58 15.25-3.05.51-6.61-2.03-9.15-7.63-2.54-7.63-8.64-33.56-8.64-68.64 0-24.91 3.05-54.4 12.2-85.42 20.34-65.08 58.47-119.99 105.25-119.99 5.08 0 9.66 1.02 14.74 2.03 37.12 9.15 63.56 47.79 63.56 108.3 0 24.41-4.07 51.86-13.73 82.37-30 97.11-94.57 152.53-160.67 152.53-7.12 0-14.74-.51-21.86-2.03-54.4-9.66-99.65-65.08-99.65-142.87 0-26.95 5.59-56.44 17.8-87.96 38.64-99.15 124.57-172.87 198.8-172.87 10.17 0 20.34 1.53 30 4.58 32.03 9.66 41.69 35.08 43.22 45.76 1.52 6.1-1.53 9.15-4.58 9.15Z" style="fill:#523766"/></svg>
