<svg xmlns="http://www.w3.org/2000/svg" viewBox="0 0 500 130" role="img"><defs><style>.cls-1{fill:#523766}</style></defs><path class="cls-1" d="M82.74 16.6c-.86.11-1.93-.96-2.57-2.36-1.5-3.11-3.75-6.32-9.97-6.75-10.08-.75-24.01 7.61-31.94 34.41-2.57 8.47-3.75 16.4-3.75 23.05 0 12.86 4.61 21.22 13.51 21.12 14.9-.21 24.33-13.4 27.98-35.48.96-6.32 1.5-11.58 1.5-15.86 0-9.65-2.68-14.26-8.79-14.79-8.68-.75-17.69 13.51-20.58 27.33-.96 4.82-1.29 9.11-1.29 12.65 0 6.54 1.07 10.83 1.61 13.08.43 1.93-.21 3-.96 3.22-.64.11-1.39-.43-1.93-1.61-.54-1.61-1.82-7.07-1.82-14.47 0-5.25.64-11.47 2.57-18.01 4.29-13.72 12.33-25.3 22.19-25.3 1.07 0 2.04.21 3.11.43 7.83 1.93 13.4 10.08 13.4 22.83 0 5.15-.86 10.93-2.89 17.37-6.32 20.47-19.94 32.16-33.87 32.16-1.5 0-3.11-.11-4.61-.43-11.47-2.04-21.01-13.72-21.01-30.12 0-5.68 1.18-11.9 3.75-18.54C34.51 19.6 52.62 4.06 68.27 4.06c2.14 0 4.29.32 6.32.96 6.75 2.04 8.79 7.4 9.11 9.65.32 1.29-.32 1.93-.96 1.93ZM126.37 84.24c-1.93 1.72-4.4 4.29-8.9 3.54-4.61-.64-6.54-5.57-6.54-12.43 0-1.07 0-2.04.11-3.22-1.29 2.25-2.89 5.04-4.61 7.4-3.75 5.04-6.97 8.9-12.54 8.47-4.39-.32-7.5-4.93-7.5-12.01 0-2.14.21-4.5.86-6.97 1.93-7.93 4.72-14.9 5.9-15.54 1.29-.64 2.57-.64 3.75-.64.86.11 1.82.11 2.25.96.32.32.32.96.21 1.82-.54 2.57-2.14 8.79-3.11 13.4-.64 2.79-1.82 8.04-1.82 11.58 0 2.14.43 3.75 1.71 3.86 3.32.43 8.25-5.36 11.04-10.4 1.61-2.79 3.64-7.29 5.25-10.72.96-4.82 2.57-8.79 3.32-9.65.64-.64 2.36-.64 3.64-.64 1.18 0 3 .21 3.32.75.11.32.21.75.11 1.29-.64 3-2.04 9.22-2.89 14.04-.75 3.64-1.71 8.47-1.71 11.68 0 1.71.32 3.11 1.07 3.43 2.25 1.07 5.15-1.71 7.18-4.39 1.61-2.04 3.11-4.4 3.86-5.9.43-.86 1.39-1.07 1.93-.64.43.32.64 1.07.11 2.14-1.18 2.47-4.18 7.08-6 8.79Z"/><path class="cls-1" d="M167.53 68.27c-1.39 1.82-3.64 3.54-5.79 4.18-1.29.32-2.47.54-3.54.54-1.82 0-3.32-.43-4.61-1.07-2.79-1.61-4.5-5.04-4.18-9.11.11-1.82-.32-1.39-1.07-.54-.64.86-3.22 4.07-5.79 9.22-2.57 5.25-4.93 13.29-5.25 14.36-.43 1.07-1.5 1.39-3.97 1.39-2.36.11-4.29-.21-4.18-1.5.11-1.29.75-9.43 1.82-15.76 1.07-7.07 3.32-15.11 3.75-15.76.54-.64 1.93-1.07 3.97-.96 1.93.11 3.32 1.07 3.11 2.25-.32 1.18-.86 5.36-1.39 7.93-.54 2.68-.75 5.68-.86 6.54 0 .54.21.64.43.43.21-.21.43-.54.64-.96.64-1.18 3.43-6 5.68-9.43 2.36-3.54 4.18-5.57 4.82-6.11.86-.54 5.15-2.04 6.75-.86 2.04 1.5.43 5.04-.43 7.29s-3.11 6.86-1.61 8.79c.86 1.18 3 1.5 5.36.96 1.93-.54 3.97-2.04 5.15-3.54.54-.64 1.39-.32 1.72.11.21.32 0 .86-.54 1.61Z"/><path class="cls-1" d="M198.4 75.02c-1.71 1.71-5.04 2.57-8.04 2.57-1.18 0-2.25-.11-3.22-.43-4.18 7.72-10.5 11.68-15.86 10.83-6-.96-9.33-6.97-9.33-17.79 0-6.22 1.18-14.04 3.54-23.48 5.68-22.4 14.79-37.41 23.26-35.48 3.75.86 5.15 3.75 5.15 7.5 0 5.04-2.47 11.58-5.04 16.94-5.04 10.72-12.33 21.44-17.47 27.01-.96 6.65-1.5 11.79-1.5 15.44 0 4.5.86 6.75 3 6.86 3.97.32 9-3.32 12.01-9-2.57-1.71-5.04-4.72-5.57-9.22-.96-6.75 1.93-14.58 7.07-14.36 3.32.11 5.36 3.11 5.36 8.25 0 2.89-.64 6.43-2.04 10.61-.32.96-.75 1.93-1.18 2.89.86.21 1.93.43 3.11.43 1.82 0 3.86-.43 4.82-1.5 1.82-1.71 2.68-1.71 2.89-1.07.32.64-.11 2.04-.96 3Zm-25.08-25.3c-.32 2.14-.64 4.18-.96 6.22 3.32-3.64 8.04-9.65 11.68-17.04 3.64-7.18 6.54-14.9 6.54-19.72 0-2.36-.64-4.07-2.36-4.61-5.15-1.82-10.93 9.75-14.9 35.16Zm14.58 14.15c0-3.22-.96-5.36-2.79-5.47-2.04-.11-3.22 2.68-3.22 6 0 1.72.32 3.43.96 5.04.75 1.61 1.93 2.79 3.32 3.64.11-.21.11-.43.21-.64 1.07-3.22 1.5-6.22 1.5-8.58Z"/><path class="cls-1" d="M237.41 84.13c-1.82 1.82-4.82 4.18-9.22 3.54-3.75-.54-6-3.64-6.65-8.47-3.86 6.11-10.83 9.65-16.72 8.47-4.4-.96-9.11-5.47-9.11-12.65 0-2.79.64-6 2.36-9.43 4.5-9.33 12.76-13.08 18.54-13.08 1.82 0 3.43.32 4.61 1.07 2.14 1.29 3.32 2.89 4.07 4.18.75-1.61 1.39-2.79 1.82-3.43 1.5-1.61 2.79-1.71 3.97-1.61 1.29.11 3 .54 2.79 1.61-.64 2.89-2.57 9-3.64 14.58-.64 3.32-1.39 7.93-1.39 11.15 0 2.14.32 3.65 1.18 4.07 2.14 1.07 5.57-1.93 7.72-4.5 1.82-2.25 2.89-4.18 3.64-5.68s3.11-.86 2.04 1.5c-1.18 2.36-3.75 6.54-6 8.68Zm-18.44-28.3c-6.86-1.93-10.93 7.93-12.54 14.15-.86 3.22-1.61 6.65-1.61 9.43s.75 4.82 2.68 5.36c4.4 1.29 8.68-3.11 11.47-7.4 1.18-1.82 2.04-3.54 2.68-5.04.32-3.11 1.07-6.32 1.93-9.33-.11-2.68-1.07-6.11-4.61-7.18Z"/><path class="cls-1" d="M279 75.56c-1.5 3.22-4.18 7.29-10.4 10.4-3.11 1.5-6.54 2.14-10.18 2.14-2.47 0-5.04-.32-7.72-.96-5.9-1.5-11.68-7.4-10.61-16.08 1.18-9.54 10.51-18.54 19.72-18.54 8.58 0 10.61 4.82 10.18 7.61-.32 2.36-1.93 5.04-5.36 4.82-3.64-.21-4.39-2.89-3.97-5.04.54-2.04.54-3.97-1.61-4.18-3.11-.32-6.97 4.93-8.68 12.11-.54 2.57-.96 5.04-.96 7.29 0 4.18 1.29 7.61 5.04 9.11 1.82.75 3.64 1.07 5.36 1.07 3.11 0 6.11-.96 8.47-2.25 5.79-3.22 8.36-8.25 9.22-9.65.32-.64 1.07-.75 1.61-.32.43.32.64 1.18-.11 2.47Z"/><path class="cls-1" d="M319.52 76.42c-1.29 2.68-4.72 6.75-7.18 8.79-2.47 2.04-6.43 3.22-9.97 2.68-3.43-.64-6.43-3.75-5.47-7.61.54-2.04 1.5-5.15 1.5-7.4 0-1.61-.54-2.89-2.25-2.89-3.97 0-7.07 4.07-8.9 7.5-1.72 3.32-3 6.75-3.32 7.83-.32 1.07-1.18 1.71-3.86 1.82-2.57.11-4.72.54-4.72-1.71s1.29-19.62 5.79-40.52c4.07-18.54 10.83-34.84 21.44-33.12 4.29.75 5.79 3.64 5.79 7.61 0 5.9-3.54 13.94-6.32 19.29-4.5 8.25-14.15 22.62-16.4 25.3-.96 7.4-1.18 10.29-1.18 10.72-.21.75.32.43.75-.64.54-1.07 4.18-7.07 7.72-11.15 3.54-3.97 10.08-10.5 15.86-10.18 5.47.43 4.61 4.61 3.97 5.9-.54 1.29-2.25 2.79-4.82 2.47-2.25-.32-3.43-2.47-5.57-2.04-3 .54-7.93 6.54-8.9 7.93-.86 1.5.11.96.64.64.43-.21 1.93-.75 4.07-.75 1.18 0 2.57.21 3.86.64 3.11 1.07 5.68 3.43 4.93 6.86-.86 3.43-2.25 8.9-.86 9.54 2.04.96 4.61-.75 6.65-2.68 2.04-1.82 3.97-5.04 4.82-6.75.54-1.07 1.61-1.18 2.04-.54.32.54.43 1.29-.11 2.46Zm-31.19-28.83c-.64 3.22-1.07 6.11-1.39 8.58 2.57-2.47 6.86-7.93 11.36-16.4 4.61-8.68 7.08-15.76 7.08-20.26 0-2.68-.96-4.4-2.79-4.93-6.32-1.61-10.93 13.19-14.26 33.02Z"/><path class="cls-1" d="M358.43 76.52c-1.29 2.89-6.54 8.47-13.4 12.33-.21.96-.32 2.04-.54 2.89-2.25 14.36-5.36 22.08-9 27.23-2.79 3.86-7.29 6.97-11.47 6.97a7.65 7.65 0 0 1-3.97-1.07c-2.68-1.61-3.86-4.61-3.86-8.15s1.07-7.29 3.32-11.04c3.75-6.22 10.61-11.79 17.69-15.76a809.29 809.29 0 0 0 2.14-13.08c.11-.64 0-.86-.11-.96-.21-.11-.43.21-.64.64-.86 1.5-7.61 12.33-15.33 11.15-5.25-.86-7.07-5.79-7.07-11.58 0-2.57.43-5.36.96-8.04 1.5-7.07 3.86-13.94 4.93-14.58.96-.75 1.61-.86 3.11-.86s3.64 1.18 3.32 2.57c-.32 1.29-2.68 10.93-3.43 14.69-.54 2.57-1.71 7.61-1.71 11.04 0 1.82.32 3.11 1.18 3.43 2.46 1.07 7.29-1.18 11.79-8.79 4.61-7.5 6.32-19.29 6.32-20.26 0-1.07 1.5-2.14 3.75-2.04 2.25.11 4.5.21 4.18 2.25-.21 1.72-3.11 17.69-5.04 30.01 5.47-3.32 9-7.5 10.72-10.61.96-1.82 1.93-1.93 2.36-1.29.32.54.32 1.61-.21 2.89Zm-36.12 31.62c-1.72 3.75-2.57 7.08-2.57 9.65s.86 4.29 2.25 4.93c3.32 1.39 8.9-1.18 11.58-13.51 1.07-4.72 2.14-10.5 3.11-15.87-6.22 3.75-11.68 8.9-14.36 14.79Z"/><path class="cls-1" d="M396.8 84.13c-1.82 1.82-4.82 4.18-9.22 3.54-3.75-.54-6-3.64-6.65-8.47-3.86 6.11-10.83 9.65-16.72 8.47-4.39-.96-9.11-5.47-9.11-12.65 0-2.79.64-6 2.36-9.43 4.5-9.33 12.76-13.08 18.54-13.08 1.82 0 3.43.32 4.61 1.07 2.14 1.29 3.32 2.89 4.07 4.18.75-1.61 1.39-2.79 1.82-3.43 1.5-1.61 2.79-1.71 3.97-1.61 1.29.11 3 .54 2.79 1.61-.64 2.89-2.57 9-3.64 14.58-.64 3.32-1.39 7.93-1.39 11.15 0 2.14.32 3.65 1.18 4.07 2.14 1.07 5.57-1.93 7.72-4.5 1.82-2.25 2.89-4.18 3.64-5.68s3.11-.86 2.04 1.5c-1.18 2.36-3.75 6.54-6 8.68Zm-18.44-28.3c-6.86-1.93-10.93 7.93-12.54 14.15-.86 3.22-1.61 6.65-1.61 9.43s.75 4.82 2.68 5.36c4.39 1.29 8.68-3.11 11.47-7.4 1.18-1.82 2.04-3.54 2.68-5.04.32-3.11 1.07-6.32 1.93-9.33-.11-2.68-1.07-6.11-4.61-7.18Z"/><path class="cls-1" d="M437.53 68.27c-1.39 1.82-3.64 3.54-5.79 4.18-1.29.32-2.47.54-3.54.54-1.82 0-3.32-.43-4.61-1.07-2.79-1.61-4.5-5.04-4.18-9.11.11-1.82-.32-1.39-1.07-.54-.64.86-3.22 4.07-5.79 9.22-2.57 5.25-4.93 13.29-5.25 14.36-.43 1.07-1.5 1.39-3.97 1.39-2.36.11-4.29-.21-4.18-1.5s.75-9.43 1.82-15.76c1.07-7.07 3.32-15.11 3.75-15.76.54-.64 1.93-1.07 3.97-.96 1.93.11 3.32 1.07 3.11 2.25-.32 1.18-.86 5.36-1.39 7.93-.54 2.68-.75 5.68-.86 6.54 0 .54.21.64.43.43.21-.21.43-.54.64-.96.64-1.18 3.43-6 5.68-9.43 2.36-3.54 4.18-5.57 4.82-6.11.86-.54 5.15-2.04 6.75-.86 2.04 1.5.43 5.04-.43 7.29s-3.11 6.86-1.61 8.79c.86 1.18 3 1.5 5.36.96 1.93-.54 3.97-2.04 5.15-3.54.54-.64 1.39-.32 1.71.11.21.32 0 .86-.54 1.61Z"/><path class="cls-1" d="M474.41 83.28c-2.14 2.04-5.9 5.04-10.29 4.18-3-.64-5.36-3.54-6-7.93-4.18 5.68-10.4 9-15.54 8.68-5.15-.21-11.04-4.82-11.04-13.19 0-1.5.21-3.11.64-4.93 3.22-12.86 15.11-18.87 21.87-17.58 3.11.64 5.36 2.47 6.75 4.29 1.39-7.29 3.97-20.69 5.79-30.34.21-1.07.32-1.5 1.39-1.93.86-.32 2.14-.54 3.22-.64.86-.11 2.14-.11 3 .21 1.5.43 1.07 1.5.86 2.79-.75 4.4-3.11 15.22-5.68 28.73-2.14 11.68-3.86 20.69-3.86 25.4 0 2.04.32 3.22 1.07 3.54 2.14.86 4.72-1.61 6.54-3.54 1.5-1.5 3.64-5.04 4.29-6.43.54-1.29 2.68-.75 1.82 1.18-.86 2.04-2.68 5.36-4.82 7.5Zm-20.26-27.76c-5.79-1.07-9.86 5.68-12.22 14.79-.75 2.89-1.07 5.47-1.07 7.5 0 4.5 1.5 6.97 3.54 7.4 3.11.54 7.08-1.82 10.72-6.11 1.5-1.71 2.57-3.86 3.32-5.9.54-3 .96-6.65 1.5-10.4-.54-2.89-1.71-6.54-5.79-7.29ZM350.5 47.16c-1.36 0-2.36-1.36-2.21-3 .14-1.72 1.36-3.07 2.71-3.07s2.36 1.36 2.22 3.07c-.14 1.64-1.36 3-2.72 3ZM381.59 38.58c-1 2.14-2.79 4.86-6.93 6.93-2.07 1-4.36 1.43-6.79 1.43-1.64 0-3.36-.21-5.14-.64-3.93-1-7.79-4.93-7.07-10.72.79-6.36 7-12.36 13.15-12.36 5.72 0 7.07 3.22 6.79 5.07-.21 1.57-1.29 3.36-3.57 3.22-2.43-.14-2.93-1.93-2.64-3.36.36-1.36.36-2.64-1.07-2.79-2.07-.21-4.64 3.29-5.79 8.07-.36 1.71-.64 3.36-.64 4.86 0 2.79.86 5.07 3.36 6.07 1.21.5 2.43.71 3.57.71 2.07 0 4.07-.64 5.65-1.5 3.86-2.14 5.57-5.5 6.15-6.43.21-.43.71-.5 1.07-.21.29.21.43.79-.07 1.64Z"/><path class="cls-1" d="M400.81 44.94c-2 1-4.64 1.5-7 1.5-1.29 0-2.43-.14-3.43-.43-.79.43-2.64.71-3.43.71-7.22.29-11.15-4.64-11.15-9.79.07-7.79 7-13.65 13.79-13.79 7.72-.14 10.43 5 10.36 9.58-.07 4.07-2.64 8.57-6.36 11.36 2 .5 4.64.21 6.72-1.07 2.71-1.57 4.22-4.07 4.86-5.29.29-.57 1-.79 1.43-.64.43.21.64.71.21 1.5-.86 1.71-2.79 4.64-6 6.36Zm-6.29-12.58c0-4.93-2.29-7.15-5.07-7.29-3.22-.07-6.57 2.72-7.36 9.79-.14 1.14-.21 2.14-.21 3.07 0 4.93 1.72 6.93 4.57 6.86 2.93 0 6.79-2.57 7.86-9.58.14-1 .21-2 .21-2.86ZM408.96 47.16c-1.36 0-2.36-1.36-2.21-3 .14-1.72 1.36-3.07 2.71-3.07s2.36 1.36 2.22 3.07c-.14 1.64-1.36 3-2.72 3ZM438.18 43.01c-1.79 1.71-3.93 3.5-8.58 3.64-3.29.07-7.43-2.36-9.79-2.29-2.29.14-2.72.79-3.14 1.07-.21.14-.64.07-.93-.29-.29-.29-.43-.86 0-1.64.86-1.57 3.57-4.79 7-7.65 3.43-2.86 7.65-5.79 8.15-6 .21-.14.36-.36.29-.43-.07-.14-.21-.14-.5-.14-.64.14-1.5.36-2.93 0-1.43-.36-4.14-1.71-5.5-2.14-1.07-.36-2.14-.57-3 .07-.71.5-.79 1.93-.14 2.36.71.5 1.64 2.5.07 3.43-1.36.79-2.93.14-3.36-1.5-.43-1.93.86-4.93 2.86-6.36 2.14-1.71 5.07-2.14 7.29-1.86 2.57.36 4 2.14 6.65 2.22 2.72.07 3.22-.71 3.86-1.07.36-.21.86-.14 1.21.07.36.21.5.57.14 1.07-.79 1.07-5.65 6.72-8.22 8.43s-7.15 5.07-7.65 5.57c-.36.36-.43.5-.29.5.07.07.21 0 .36-.07.43-.14 1.43-.14 2.71.14 1.36.21 5.86 1.93 8.08 1.93 1.43.07 3.14-.21 4.72-1.43.93-.71 1.5-1.79 1.86-2.43.21-.57.79-.86 1.21-.86.43.07.79.43.5 1.29-.64 1.57-1.64 3.14-2.93 4.36Z"/><path class="cls-1" d="M462.62 44.3c-1.21 1.21-3.22 2.79-6.15 2.36-2.5-.36-4-2.43-4.43-5.65-2.57 4.07-7.22 6.43-11.15 5.65-2.93-.64-6.07-3.64-6.07-8.43 0-1.86.43-4 1.57-6.29 3-6.22 8.5-8.72 12.36-8.72 1.21 0 2.29.21 3.07.71 1.43.86 2.21 1.93 2.71 2.79.5-1.07.93-1.86 1.21-2.29 1-1.07 1.86-1.14 2.64-1.07.86.07 2 .36 1.86 1.07-.43 1.93-1.71 6-2.43 9.72-.43 2.21-.93 5.29-.93 7.43 0 1.43.21 2.43.79 2.72 1.43.71 3.72-1.29 5.14-3 1.21-1.5 1.93-2.79 2.43-3.79s2.07-.57 1.36 1c-.79 1.57-2.5 4.36-4 5.79Zm-12.29-18.86c-4.57-1.29-7.29 5.29-8.36 9.43-.57 2.14-1.07 4.43-1.07 6.29s.5 3.22 1.79 3.57c2.93.86 5.79-2.07 7.65-4.93.79-1.21 1.36-2.36 1.79-3.36.21-2.07.71-4.22 1.29-6.22-.07-1.79-.71-4.07-3.07-4.79Z"/></svg>
