<svg id="Layer_1" data-name="Layer 1" xmlns="http://www.w3.org/2000/svg" viewBox="0 0 530 390"><defs><style>.cls-1{fill:#403e56;}.cls-2{fill:#f9b7b8;}.cls-3{fill:#d1cde2;}.cls-4{fill:#302e41;}.cls-5{fill:#523866;}.cls-6{fill:#a0626b;}.cls-7{fill:#010101;opacity:0.2;isolation:isolate;}</style></defs><path class="cls-1" d="M234.91,198a113,113,0,0,1-47.1,91.79,110.74,110.74,0,0,1-12.47,7.8A113.28,113.28,0,0,1,98,308.45a110.56,110.56,0,0,1-16.42-4.88A113,113,0,1,1,234.91,198Z"/><circle class="cls-2" cx="114.78" cy="164.64" r="25.99"/><path class="cls-2" d="M104.63,184.54s3.25,15.43,3.25,17.06,15.43,8.93,15.43,8.93l13.81-2.44L142,193.47s-8.12-12.18-8.12-17.05Z"/><path class="cls-3" d="M121.91,311A113.34,113.34,0,0,1,98,308.45c-.39-7.95-.65-16.71-.65-16.71l-7.92-23L73,221.09l33.85-25.84s8.38,13.65,20.56,9.59a16.8,16.8,0,0,0,11.92-15.7l40.06,14.08-6.92,56.15-.39,3.14,3.3,35.08A112.43,112.43,0,0,1,121.91,311Z"/><path class="cls-4" d="M92.25,143.7s8.25-17.87,24.06-13.75,24.76,10.32,25.45,16.5-.35,15.48-.35,15.48-1.72-12.72-12.72-10-28.19.68-28.19.68L97.75,177.4s-3.1-4.47-6.53-1.72S81.25,149.21,92.25,143.7Z"/><path class="cls-3" d="M207.78,271.45a112.84,112.84,0,0,1-20,18.34,37.57,37.57,0,0,1-2.78-6.17l-12.6-24.25L163.92,243l1.62-42.23,13.81,2.44s8.12,8.12,11.37,17.87l6.5,29.23,10.55,21.12Z"/><circle class="cls-5" cx="194.91" cy="112" r="33"/><path class="cls-1" d="M521.82,197a113,113,0,0,1-63.93,101.82h0a108.17,108.17,0,0,1-10.54,4.43c-.57.22-1.15.42-1.74.61-1.2.43-2.42.82-3.65,1.19q-3.79,1.17-7.7,2.07h0l-.07,0-.16,0-1,.23q-2.91.64-5.88,1.11A111.7,111.7,0,0,1,408.82,310c-3.28,0-6.54-.14-9.75-.42a4.57,4.57,0,0,1-.52-.05,113.73,113.73,0,0,1-25.86-5.43c-1.24-.42-2.48-.86-3.7-1.33A113,113,0,1,1,521.82,197Z"/><path class="cls-1" d="M395.39,198.27s26.51-11.55,39,.65S401,207.1,395.39,198.27Z"/><path class="cls-4" d="M441.16,143.5c-8.91-15.05-26.53-15.75-26.53-15.75s-17.17-2.2-28.18,20.72c-10.27,21.36-24.44,42-2.29,47l4-12.45,2.47,13.38a85.69,85.69,0,0,0,9.48.16c23.73-.76,46.33.23,45.6-8.29C444.75,176.94,449.73,158,441.16,143.5Z"/><path class="cls-6" d="M399.81,176.18s4,26.51-4,29.72,16.06,16.86,16.06,16.86h13.65l8.84-18.47s-8-14.46-3.22-28.11S399.81,176.18,399.81,176.18Z"/><path class="cls-1" d="M445.59,303.87v-94s-1-9.65-9.11-7.14a14.82,14.82,0,0,0-2.4,1,27.51,27.51,0,0,0-3.82,2.49c-.46.35-.93.73-1.42,1.14l-.12.1c-15.26,12.85-22.48,4-24.09,2.41-.59-.58-2.13-2.23-3.86-4.09h0c-.75-.8-1.53-1.64-2.27-2.46-2.29-2.47-4.31-4.68-4.31-4.68l-8,6.42,2,48.68.46,11.48h0l.15,3.57v0L390,300l.19,4.7q4.08,1.29,8.27,2.18c.82.17,1.69.34,2.58.5,7,1.26,15.72,1.91,21.28-1.08a20.13,20.13,0,0,1,3.52-1.47,24.49,24.49,0,0,1,7.46-1c.54,0,1.07,0,1.6.06h0a35.86,35.86,0,0,1,7.05,1.21Z"/><path class="cls-3" d="M407.07,300.91a49.3,49.3,0,0,1-6.05,6.46c-.68.62-1.36,1.22-2,1.81l-.42.35a113.73,113.73,0,0,1-25.86-5.43c-1.24-.42-2.48-.86-3.7-1.33a37.35,37.35,0,0,0,1.81-6c5.53-25.92-10.55-65.26-11.95-71.57-.51-2.27,1.37-5.42,4.38-8.77,6.57-7.29,18.52-15.53,22.93-17.73a16.53,16.53,0,0,1,10.65-1h0a19.53,19.53,0,0,1,3.27,1h0c0,.15.12,1.29.31,3.24.1,1.07.22,2.37.37,3.89h0c.27,2.84.61,6.38,1,10.42h0c2.41,24.89,6.77,68.21,8.47,75.58C410.88,294.56,409.48,297.72,407.07,300.91Z"/><path class="cls-3" d="M445.59,303.87c.59-.19,1.17-.39,1.74-.61a108.17,108.17,0,0,0,10.54-4.43c-5.14-15,10.05-62.77,14.4-77.55v0c.51-1.73.87-3,1-3.72,1.61-7.23-22.89-14-23.69-15.66-.62-1.22-10.57-2.45-15.26-3l-2.4-.25c-1.24,1-2.19,3.72-2.93,7.73-.07.32-.13.66-.18,1-.53,3.1-.94,6.85-1.27,11.06-1.82,23-1.2,59.24-2.86,74.18a30.22,30.22,0,0,0,.41,9.25,29,29,0,0,0,.7,2.93,34.29,34.29,0,0,0,1.26,3.7q3-.47,5.88-1.11l1-.23.16,0,.07,0h0q3.9-.9,7.7-2.07Z"/><ellipse class="cls-6" cx="439.57" cy="165.34" rx="1.61" ry="3.21"/><ellipse class="cls-6" cx="392.18" cy="165.34" rx="1.61" ry="3.21"/><path class="cls-3" d="M445.59,303.87c.59-.19,1.17-.39,1.74-.61a108.17,108.17,0,0,0,10.54-4.43,0,0,0,0,0,0,0,.06.06,0,0,1,0,0c6-31.68,12.36-65.57,14.38-77.54v0c.35-2.08.57-3.49.63-4.12.8-8-19.28-8-19.28-8l-3.2,16.17-4.83,24.43-1.66,8.39-8.77,44.33-.28,1.42-.65,3.28h0q3.9-.9,7.7-2.07Z"/><path class="cls-3" d="M398.55,309.53a113.73,113.73,0,0,1-25.86-5.43c-.63-2.43-1.26-4.89-1.89-7.36-7.81-30.65-15.16-63.08-15.16-69.16,0-5,3.51-8.66,7.59-11.18a42.9,42.9,0,0,1,12.49-4.88s2.56,10.65,6.24,26c2,8.2,4.25,17.74,6.62,27.72h0c2.76,11.58,5.65,23.74,8.33,35.1q.64,2.76,1.28,5.44v0a.06.06,0,0,1,0,0l.24,1c.18.78.36,1.55.53,2.31,0,.13.07.26.1.4A4.57,4.57,0,0,1,398.55,309.53Z"/><path class="cls-7" d="M380.13,235.21l18.08,70.67S389.77,244.05,380.13,235.21Z"/><path class="cls-7" d="M450.42,225.28l-4.83,24.43-1.66,8.39-8.76,44.33h0l-.27,1.42h0l-.64,3.28h0l-.07,0-.16,0-1,.2c.09-1.12.2-2.32.32-3.59,0-.47.08-1,.13-1.45,1.88-20.43,5.89-55.72,12.18-70.5C447.07,228.36,448.68,226,450.42,225.28Z"/><circle class="cls-6" cx="415.87" cy="165.74" r="23.29"/><polygon class="cls-4" points="437.22 142.05 419.81 132.93 395.77 136.66 390.8 158.63 403.18 158.15 406.64 150.08 406.64 158.02 412.35 157.8 415.67 144.95 417.74 158.63 438.05 158.21 437.22 142.05"/><circle class="cls-5" cx="486.82" cy="113" r="33"/></svg>